<?xml version="1.0" encoding="UTF-8"?>
<svg version="1.1" xmlns="http://www.w3.org/2000/svg" width="500" height="500">
<path d="M0 0 C165 0 330 0 500 0 C500 165 500 330 500 500 C335 500 170 500 0 500 C0 335 0 170 0 0 Z " fill="#FEFEFE" transform="translate(0,0)"/>
<path d="M0 0 C-0.33 0.33 -0.66 0.66 -1 1 C-1.10740307 2.9780065 -1.18531367 4.95763616 -1.25 6.9375 C-1.68314221 13.58880245 -3.54871341 18.35822893 -7 24 C-5.68 23.67 -4.36 23.34 -3 23 C-7.625 28.75 -7.625 28.75 -11 31 C-11.58592634 34.11610554 -11.58592634 34.11610554 -11.6875 37.625 C-11.75324219 38.81351563 -11.81898438 40.00203125 -11.88671875 41.2265625 C-11.92410156 42.14179688 -11.96148437 43.05703125 -12 44 C-14.31 44 -16.62 44 -19 44 C-19.33 43.34 -19.66 42.68 -20 42 C-20.85722656 42.33773437 -21.71445312 42.67546875 -22.59765625 43.0234375 C-31.1474166 46.35851876 -38.86036008 49.03793264 -48 50 C-47.67 50.66 -47.34 51.32 -47 52 C-52.55121766 52.20475803 -57.1692603 51.96226898 -62.546875 50.46484375 C-71.6279783 48.74406144 -80.94092863 48.83676801 -89.015625 53.6328125 C-92.6697079 56.1503893 -95.94293482 58.78203665 -99 62 C-96.62868264 51.72429144 -88.00159772 44.41661661 -79.6875 38.625 C-77 37 -77 37 -75 37 C-75 35.68 -75 34.36 -75 33 C-81.68953049 36.85999508 -81.68953049 36.85999508 -87.9375 41.375 C-90 43 -90 43 -93 43 C-93.86625 43.495 -93.86625 43.495 -94.75 44 C-98.03821855 45.46143047 -100.42905515 45.36314693 -104 45 C-106.53409304 43.86606731 -108.66202311 42.52684205 -111 41 C-110.34 39.68 -109.68 38.36 -109 37 C-105 37 -105 37 -103 38 C-101.00039988 38.039992 -98.99952758 38.04346799 -97 38 C-96.34 36.68 -95.68 35.36 -95 34 C-95.87011719 33.76216797 -95.87011719 33.76216797 -96.7578125 33.51953125 C-102.22905698 31.88538067 -106.12460129 30.2728755 -110 26 C-110.6875 23 -110.6875 23 -110 20 C-107.827365 17.42714276 -106.02006162 15.51003081 -103 14 C-97.74094829 13.59545756 -94.54701708 14.33833147 -90 17 C-90.66 18.32 -91.32 19.64 -92 21 C-95.33333333 21 -98.66666667 21 -102 21 C-102.33 22.32 -102.66 23.64 -103 25 C-102.00419922 25.23783203 -102.00419922 25.23783203 -100.98828125 25.48046875 C-95.22765912 27.00261854 -91.77599264 28.34294241 -88 33 C-87.01515892 31.25318707 -86.03733813 29.5024149 -85.0625 27.75 C-84.51722656 26.77546875 -83.97195312 25.8009375 -83.41015625 24.796875 C-82.21984826 22.43604253 -81.35032965 20.60244883 -81 18 C-81.33 17.01 -81.66 16.02 -82 15 C-81.443125 15.05800781 -80.88625 15.11601562 -80.3125 15.17578125 C-74.54882372 15.51653914 -71.48141997 14.49634534 -66.796875 11.1796875 C-64.59768944 9.73587437 -62.60728357 9.24443283 -60 9 C-60.33 10.32 -60.66 11.64 -61 13 C-60.52691406 12.65066406 -60.05382812 12.30132812 -59.56640625 11.94140625 C-54.39967837 8.38613346 -50.25192211 7.15919246 -44 7 C-44.33 8.32 -44.66 9.64 -45 11 C-43.6696875 10.071875 -43.6696875 10.071875 -42.3125 9.125 C-37.73041169 6.18554712 -34.47957688 4.68688132 -29 5 C-28.505 6.98 -28.505 6.98 -28 9 C-23.20456888 8.47906775 -20.07186709 7.11271884 -16 4.5625 C-5.37200755 -2.06615675 -5.37200755 -2.06615675 0 0 Z " fill="#86BC45" transform="translate(330,205)"/>
<path d="M0 0 C-0.33 0.33 -0.66 0.66 -1 1 C-1.10740307 2.9780065 -1.18531367 4.95763616 -1.25 6.9375 C-1.68314221 13.58880245 -3.54871341 18.35822893 -7 24 C-5.68 23.67 -4.36 23.34 -3 23 C-7.5 28.75 -7.5 28.75 -12 31 C-12 25.72 -12 20.44 -12 15 C-18.13987263 16.75424932 -19.60014844 17.29486184 -24 21 C-26.98501964 22.42143792 -28.67730616 23 -32 23 C-33.140625 21.50390625 -33.140625 21.50390625 -34.25 19.5625 C-36.40839082 16.28861056 -36.71394569 16.07034122 -40.8125 15.0625 C-41.864375 15.041875 -42.91625 15.02125 -44 15 C-43.67 18.63 -43.34 22.26 -43 26 C-53.04464286 29.21428571 -53.04464286 29.21428571 -58 29 C-57.29666462 26.02277453 -56.41751463 23.14743457 -55.4375 20.25 C-55.16808594 19.45078125 -54.89867187 18.6515625 -54.62109375 17.828125 C-54.41613281 17.22484375 -54.21117187 16.6215625 -54 16 C-55.98 16 -57.96 16 -60 16 C-60.34933594 17.05960938 -60.69867188 18.11921875 -61.05859375 19.2109375 C-61.51814988 20.59898459 -61.97778964 21.98700399 -62.4375 23.375 C-62.66759766 24.07367188 -62.89769531 24.77234375 -63.13476562 25.4921875 C-64.88671875 30.7734375 -64.88671875 30.7734375 -66 33 C-66.99 33 -67.98 33 -69 33 C-70.98 27.39 -72.96 21.78 -75 16 C-64.95535714 9.70535714 -64.95535714 9.70535714 -60 9 C-60.33 10.32 -60.66 11.64 -61 13 C-60.52691406 12.65066406 -60.05382812 12.30132812 -59.56640625 11.94140625 C-54.39967837 8.38613346 -50.25192211 7.15919246 -44 7 C-44.33 8.32 -44.66 9.64 -45 11 C-44.113125 10.38125 -43.22625 9.7625 -42.3125 9.125 C-37.73041169 6.18554712 -34.47957688 4.68688132 -29 5 C-28.505 6.98 -28.505 6.98 -28 9 C-23.20456888 8.47906775 -20.07186709 7.11271884 -16 4.5625 C-5.37200755 -2.06615675 -5.37200755 -2.06615675 0 0 Z " fill="#8ABF4B" transform="translate(330,205)"/>
<path d="M0 0 C0.33 0 0.66 0 1 0 C1.20625 1.216875 1.4125 2.43375 1.625 3.6875 C3.39368244 10.5456564 8.88551821 12.93337917 14.5625 16.4375 C19.93256756 19.7910524 23.93581707 22.80745122 26 29 C26.07051114 31.73865287 26.09357765 34.45027588 26.0625 37.1875 C26.05798828 37.93708984 26.05347656 38.68667969 26.04882812 39.45898438 C26.03706354 41.30602383 26.01912865 43.15302213 26 45 C23.58861364 42.66508466 21.46706347 40.38505591 19.5625 37.625 C14.65356691 30.91824986 8.70404835 25.02564158 3 19 C6.48685124 23.77970221 10.13262193 28.33171604 14 32.8125 C19.85600961 39.72346865 25.52094069 46.59564973 25 56 C23.76056641 54.88044922 23.76056641 54.88044922 22.49609375 53.73828125 C18.97610426 50.80271947 15.2147984 49.05918551 11.0625 47.1875 C3.08559454 43.38633902 -1.45211144 39.35606754 -5.9375 31.6875 C-9.32479304 19.93160063 -5.45333965 10.34254071 0 0 Z " fill="#069449" transform="translate(111,214)"/>
<path d="M0 0 C3.4375 1.5 3.4375 1.5 6 3 C5.34 4.32 4.68 5.64 4 7 C0.66666667 7 -2.66666667 7 -6 7 C-6.33 8.32 -6.66 9.64 -7 11 C-6.33613281 11.15855469 -5.67226562 11.31710938 -4.98828125 11.48046875 C0.77234088 13.00261854 4.22400736 14.34294241 8 19 C8.98484108 17.25318707 9.96266187 15.5024149 10.9375 13.75 C11.75541016 12.28820312 11.75541016 12.28820312 12.58984375 10.796875 C13.78015174 8.43604253 14.64967035 6.60244883 15 4 C14.67 3.01 14.34 2.02 14 1 C16.31 1 18.62 1 21 1 C22.00399524 3.62353518 23.00334445 6.24867795 24 8.875 C24.42925781 9.99455078 24.42925781 9.99455078 24.8671875 11.13671875 C27 16.7734375 27 16.7734375 27 19 C27.99 19 28.98 19 30 19 C30.18175781 18.28714844 30.36351562 17.57429688 30.55078125 16.83984375 C31.99782778 11.32622542 33.58891366 6.16661358 36 1 C38.31 1 40.62 1 43 1 C40.92843246 8.61258965 38.13463725 15.76700208 35 23 C34.39562527 24.41657792 33.79141736 25.83322704 33.1875 27.25 C32.5996875 28.61125 32.5996875 28.61125 32 30 C29.69 30 27.38 30 25 30 C23.68 26.7 22.36 23.4 21 20 C14.95566426 21.35997554 11.36505864 24.85651794 7 29 C6.34 28.67 5.68 28.34 5 28 C4.113125 28.474375 3.22625 28.94875 2.3125 29.4375 C-1.57264722 31.27011661 -3.74693967 31.52230565 -8 31 C-10.5288437 29.85905685 -12.66373928 28.52572129 -15 27 C-14.34 25.68 -13.68 24.36 -13 23 C-9 23 -9 23 -7 24 C-5.00039988 24.039992 -2.99952758 24.04346799 -1 24 C-0.34 22.68 0.32 21.36 1 20 C0.12988281 19.76216797 0.12988281 19.76216797 -0.7578125 19.51953125 C-6.22905698 17.88538067 -10.12460129 16.2728755 -14 12 C-14.6875 9 -14.6875 9 -14 6 C-9.51379698 0.68739116 -6.90293013 -0.46019534 0 0 Z " fill="#0D974E" transform="translate(234,219)"/>
<path d="M0 0 C7 0 7 0 8.77734375 1.2421875 C12 5.77777778 12 5.77777778 12 8 C18.66456438 5.78183384 18.66456438 5.78183384 24.25 1.75 C24.8275 1.1725 25.405 0.595 26 0 C27.98 0 29.96 0 32 0 C32 9.57 32 19.14 32 29 C30.02 29 28.04 29 26 29 C25.67 23.06 25.34 17.12 25 11 C23.72125 12.65 22.4425 14.3 21.125 16 C19.80144783 17.70780925 18.43581474 19.38542921 17 21 C16.34 21 15.68 21 15 21 C12.48552581 18.13281676 10.28984475 15.05312634 8 12 C7.67 17.61 7.34 23.22 7 29 C4.69 29 2.38 29 0 29 C0 19.43 0 9.86 0 0 Z " fill="#079445" transform="translate(286,220)"/>
<path d="M0 0 C3.29720369 1.64860185 3.89898421 4.77797717 5.16015625 8.109375 C6.74999756 13.58138694 7.23847692 18.96979212 5.046875 24.33203125 C1.35296742 30.63271538 -3.66781466 34.03699367 -10.1875 37.1875 C-11.23292969 37.69667969 -12.27835938 38.20585937 -13.35546875 38.73046875 C-14.22816406 39.14941406 -15.10085937 39.56835938 -16 40 C-16.99 40.495 -16.99 40.495 -18 41 C-16.89288002 31.20624634 -9.45265976 24.02143524 -3 17 C-9.39397882 21.65016641 -14.11600928 27.85493508 -19 34 C-19.08150744 31.93816367 -19.1394194 29.87538651 -19.1875 27.8125 C-19.22230469 26.66394531 -19.25710937 25.51539063 -19.29296875 24.33203125 C-18.96244063 20.57282476 -18.34682555 18.93230194 -16 16 C-13.1875 13.90234375 -13.1875 13.90234375 -10 11.9375 C-3.7069224 8.0650661 -3.7069224 8.0650661 -0.3125 1.75 C-0.209375 1.1725 -0.10625 0.595 0 0 Z " fill="#8ABF48" transform="translate(159,218)"/>
<path d="M0 0 C6 0 6 0 8.5546875 2.40625 C9.32039063 3.4271875 10.08609375 4.448125 10.875 5.5 C11.65617187 6.5209375 12.43734375 7.541875 13.2421875 8.59375 C13.82226562 9.3878125 14.40234375 10.181875 15 11 C17.71322716 8.34997613 20.25114639 5.78683643 22.4375 2.6875 C23.283125 1.800625 24.12875 0.91375 25 0 C26.98 0 28.96 0 31 0 C31 9.57 31 19.14 31 29 C29.02 29 27.04 29 25 29 C24.67 23.06 24.34 17.12 24 11 C21.36 14.3 18.72 17.6 16 21 C11 17 11 17 7 11 C6.67 16.94 6.34 22.88 6 29 C4.02 29 2.04 29 0 29 C0 19.43 0 9.86 0 0 Z " fill="#039347" transform="translate(331,220)"/>
<path d="M0 0 C11.35919313 6.37775295 18.91193286 15.7474912 22.93359375 28.109375 C24.77134064 37.83054079 24.13688504 48.56589301 19.3515625 57.3203125 C17.71484375 59.11328125 17.71484375 59.11328125 16.3515625 60.3203125 C16.55652344 59.64484375 16.76148438 58.969375 16.97265625 58.2734375 C17.24207031 57.38140625 17.51148438 56.489375 17.7890625 55.5703125 C18.05589844 54.68859375 18.32273437 53.806875 18.59765625 52.8984375 C21.7743057 42.03528392 21.34972016 30.32223669 15.8515625 20.2578125 C9.69772121 10.7186062 1.83564671 4.90853696 -9.0234375 2.1328125 C-19.96303745 -0.04771587 -29.76221309 1.75598001 -39.3984375 7.4453125 C-48.42920658 13.54753218 -54.21297615 22.29606231 -56.29296875 32.98046875 C-57.48583473 40.83241073 -56.13328225 46.86577825 -53.62109375 54.40234375 C-52.85415949 56.70314654 -52.19145121 58.95963184 -51.6484375 61.3203125 C-56.85904302 56.69198095 -58.5802686 49.94825729 -59.0078125 43.16796875 C-59.45966108 28.85251163 -56.22422288 18.42197868 -46.5234375 7.6328125 C-34.77345428 -3.6693014 -14.8338078 -6.56728952 0 0 Z " fill="#92C550" transform="translate(152.6484375,194.6796875)"/>
<path d="M0 0 C2.65868909 1.77245939 3.59886916 2.77422056 4.625 5.75 C3.305 6.74 1.985 7.73 0.625 8.75 C-0.07625 8.255 -0.7775 7.76 -1.5 7.25 C-4.88750333 5.48260696 -6.6085258 5.1222543 -10.375 5.75 C-13.375 7.75 -13.375 7.75 -15.375 10.75 C-15.92848638 14.62440468 -15.67468563 17.53044012 -13.375 20.75 C-10.70319286 22.82807222 -9.36361237 22.74917181 -5.9375 22.5 C-2.85752466 21.85158414 -0.23019587 21.04781631 2.625 19.75 C3.615 21.07 4.605 22.39 5.625 23.75 C1.81034465 27.98850595 -1.12377922 29.54534357 -6.8125 30.0625 C-13.30406959 29.49306407 -17.15154796 26.57680233 -21.375 21.75 C-23.23106957 16.18179128 -23.28652916 10.71890298 -20.8125 5.375 C-14.76971303 -1.13261674 -8.61113584 -3.18930957 0 0 Z " fill="#0A964D" transform="translate(206.375,220.25)"/>
<path d="M0 0 C2.31 0 4.62 0 7 0 C8.00399524 2.62353518 9.00334445 5.24867795 10 7.875 C10.28617187 8.62136719 10.57234375 9.36773437 10.8671875 10.13671875 C13 15.7734375 13 15.7734375 13 18 C13.99 18 14.98 18 16 18 C16.18175781 17.28714844 16.36351562 16.57429688 16.55078125 15.83984375 C17.99782778 10.32622542 19.58891366 5.16661358 22 0 C24.31 0 26.62 0 29 0 C26.92843246 7.61258965 24.13463725 14.76700208 21 22 C20.39562527 23.41657792 19.79141736 24.83322704 19.1875 26.25 C18.795625 27.1575 18.40375 28.065 18 29 C15.69 29 13.38 29 11 29 C9.72470247 25.85595863 8.45560671 22.70944782 7.1875 19.5625 C6.83107422 18.68400391 6.47464844 17.80550781 6.10742188 16.90039062 C3.86533919 11.32603827 1.82430851 5.72491635 0 0 Z " fill="#069445" transform="translate(248,220)"/>
<path d="M0 0 C6.93 0 13.86 0 21 0 C21 1.98 21 3.96 21 6 C16.05 6 11.1 6 6 6 C6 7.98 6 9.96 6 12 C9.96 12 13.92 12 18 12 C18 13.98 18 15.96 18 18 C14.04 18 10.08 18 6 18 C6 21.63 6 25.26 6 29 C4.02 29 2.04 29 0 29 C0 19.43 0 9.86 0 0 Z " fill="#08954B" transform="translate(375,220)"/>
<path d="M0 0 C3.61983266 2.64149951 6.20730333 4.84849193 8 9 C8.56967254 12.83943684 8.38436073 15.99105309 7 19.625 C3.72070878 23.51915832 -0.43783893 26.71891946 -5 29 C-5.14285714 20.42857143 -5.14285714 20.42857143 -4 17 C-4.66 18.98 -5.32 20.96 -6 23 C-6.66 23 -7.32 23 -8 23 C-9.68158943 19.63682115 -9.85447468 16.58998042 -9 13 C-7.13744881 10.18538582 -5.09059565 7.71906425 -2.84765625 5.19921875 C-0.81236055 3.05062482 -0.81236055 3.05062482 0 0 Z " fill="#F5C609" transform="translate(140,205)"/>
<path d="M0 0 C0.66 0 1.32 0 2 0 C3.32 3.96 4.64 7.92 6 12 C4.453125 12.9075 2.90625 13.815 1.3125 14.75 C-2.35380948 16.94458525 -5.76199464 19.19372869 -9 22 C-10 19 -10 19 -9.41088867 17.23828125 C-9.0832251 16.60277344 -8.75556152 15.96726563 -8.41796875 15.3125 C-8.06283203 14.61382812 -7.70769531 13.91515625 -7.34179688 13.1953125 C-6.96087891 12.47085938 -6.57996094 11.74640625 -6.1875 11 C-5.81818359 10.27554688 -5.44886719 9.55109375 -5.06835938 8.8046875 C-3.49596435 5.74458659 -1.91234761 2.86852142 0 0 Z " fill="#87BD49" transform="translate(249,226)"/>
<path d="M0 0 C4.61333834 3.69067067 8.73113141 7.68276997 12.75 12 C13.22155518 12.49790039 13.69311035 12.99580078 14.17895508 13.50878906 C17.16546253 16.76447129 19.20183692 19.97211471 21 24 C18.43819017 23.62848212 17.24186638 23.25329787 15.4296875 21.35546875 C14.91664062 20.64003906 14.40359375 19.92460937 13.875 19.1875 C10.50022791 14.61427944 6.91548622 10.28459037 3.20068359 5.98706055 C0 2.21735275 0 2.21735275 0 0 Z " fill="#E9F6EF" transform="translate(113,232)"/>
<path d="M0 0 C0.66 0 1.32 0 2 0 C4.84166809 5.68333619 3.61513418 15.35065972 2.2109375 21.3984375 C0.7101903 25.67155738 -0.56310114 28.95701505 -4 32 C-3.79503906 31.32453125 -3.59007812 30.6490625 -3.37890625 29.953125 C-2.97478516 28.61507812 -2.97478516 28.61507812 -2.5625 27.25 C-2.29566406 26.36828125 -2.02882812 25.4865625 -1.75390625 24.578125 C-0.65791987 20.83019229 0.1256851 17.59591469 0.09765625 13.671875 C0.09443359 12.87265625 0.09121094 12.0734375 0.08789062 11.25 C0.07951172 10.425 0.07113281 9.6 0.0625 8.75 C0.05573242 7.48929688 0.05573242 7.48929688 0.04882812 6.203125 C0.03707961 4.13538599 0.01914522 2.06768376 0 0 Z " fill="#90C364" transform="translate(173,223)"/>
<path d="M0 0 C0 1.32 0 2.64 0 4 C-9.41002278 7.44419134 -9.41002278 7.44419134 -14 7 C-13.8125 5.125 -13.8125 5.125 -13 3 C-8.89427786 0.83309109 -4.61534648 0 0 0 Z " fill="#F3F9F0" transform="translate(286,227)"/>
<path d="M0 0 C0 1.32 0 2.64 0 4 C-2.40625 5.921875 -2.40625 5.921875 -5.5 7.75 C-6.5209375 8.36359375 -7.541875 8.9771875 -8.59375 9.609375 C-9.3878125 10.06828125 -10.181875 10.5271875 -11 11 C-11 7.33986634 -9.72370557 6.0491242 -7.37109375 3.36328125 C-5.12468591 1.12967345 -3.1734088 0 0 0 Z " fill="#F6FAF2" transform="translate(255,238)"/>
<path d="M0 0 C0 3.87865126 -1.12968278 4.54395316 -3.75 7.3125 C-6.89590266 10.72613905 -9.57072347 14.05242564 -12 18 C-12.66 17.34 -13.32 16.68 -14 16 C-9.84542161 10.08287321 -5.22741666 4.98860067 0 0 Z " fill="#ECF4E1" transform="translate(156,233)"/>
<path d="M0 0 C-3.75467691 3.05936637 -7.08113061 5 -12 5 C-12.33 4.01 -12.66 3.02 -13 2 C-11.39935157 1.46845258 -9.79431126 0.95011647 -8.1875 0.4375 C-7.29417969 0.14746094 -6.40085937 -0.14257812 -5.48046875 -0.44140625 C-3 -1 -3 -1 0 0 Z " fill="#F1F7EC" transform="translate(310,223)"/>
<path d="M0 0 C0 3.52032428 -0.70351351 4.4385343 -3 7 C-3.66 7 -4.32 7 -5 7 C-5.66 5.68 -6.32 4.36 -7 3 C-4.69 2.01 -2.38 1.02 0 0 Z " fill="#84BD4D" transform="translate(306,225)"/>
<path d="M0 0 C1.12894876 0.93274109 2.25300876 1.87140122 3.375 2.8125 C4.00148438 3.33457031 4.62796875 3.85664063 5.2734375 4.39453125 C7 6 7 6 9 9 C6 9 6 9 4.39453125 7.5390625 C3.61142578 6.59160156 3.61142578 6.59160156 2.8125 5.625 C2.28269531 4.99851563 1.75289063 4.37203125 1.20703125 3.7265625 C0 2 0 2 0 0 Z " fill="#CAE8D8" transform="translate(113,232)"/>
</svg>
